<svg xmlns="http://www.w3.org/2000/svg" viewBox="0 0 195.81 157.52"><title>user-page-icon</title><rect x="10.63" y="53.67" width="173.15" height="85.85" fill="#565656"/><path d="M45.2,148.62H189.4c4,0,6.41-2.4,6.41-6.4V6.41c0-4-2.41-6.41-6.41-6.41H6.42C2.4,0,0,2.41,0,6.41v135.8c0,4,4,6.4,8,6.4H45.2Zm-13.88-9.12H10.63V18.26H183.79V139.51H50.12Z"/><rect x="10.63" y="18.36" width="173.15" height="35.31" fill="#333"/><path d="M112.28,53.17a2.91,2.91,0,0,1-2.72,3.07H86.25a2.91,2.91,0,0,1-2.72-3.07V30.52a2.91,2.91,0,0,1,2.72-3.07h23.3a2.91,2.91,0,0,1,2.72,3.07V53.17Z" fill="#8e8e8e"/><path d="M108.22,49v0h0c-1-2.3-3.6-4-5.39-5l.1-.15a6.3,6.3,0,0,0,.77-1.69A3.38,3.38,0,0,0,105,40a2.38,2.38,0,0,0-.24-2.21l0,0a6.63,6.63,0,0,0-4.43-7.24h0a7.45,7.45,0,0,0-2-.29l-.41,0-.41,0a7.49,7.49,0,0,0-2,.29h-.05a6.42,6.42,0,0,0-1.77.93h0A2,2,0,0,0,91.5,31c1.5.6,1.31,1.15,1.31,1.15h0A6.6,6.6,0,0,0,91,37.71l0,0A2.4,2.4,0,0,0,90.75,40a3.39,3.39,0,0,0,1.32,2.15A6.44,6.44,0,0,0,93,44c-2.45,1.33-6.44,4.09-5.66,7.76l.06.29.28.1a32.3,32.3,0,0,0,10,1.42,40.48,40.48,0,0,0,10.46-1.39l.32-.08.07-.32A4.49,4.49,0,0,0,108.22,49ZM92,39.7a2.28,2.28,0,0,1-.09-1l.53.49.51,1.6s-.34-4.49,2.07-4.83a12.3,12.3,0,0,0,5.75,3.22s-.69-1.27-1.27-2.42c0,0,1.84,2.07,3.45,2.42a6.25,6.25,0,0,0,.49-.78.46.46,0,0,1,.15,0c.23,0,.54.19.24,1.35-.38,1.5-1,1.59-1.18,1.59h0a3.75,3.75,0,0,1-.26,1,5.23,5.23,0,0,1-2.55,2.92,4.35,4.35,0,0,1-1.11.43h0a3.57,3.57,0,0,1-.89.08,4.88,4.88,0,0,1-3-1.45v0a5.19,5.19,0,0,1-1.53-2.95h0C93,41.29,92.35,41.2,92,39.7ZM97.9,51.86a.87.87,0,1,1,.87-.87A.87.87,0,0,1,97.9,51.86Zm.32-3.27a10.68,10.68,0,0,1-6.84-2.37,18.73,18.73,0,0,1,2.25-1.4,6,6,0,0,0,5.3,1.84l.27-.07.25-.07.45-.17.37-.17.25-.13.38-.23a7,7,0,0,0,1.26-1.06,6.43,6.43,0,0,1,1,.62h0a16.76,16.76,0,0,1,1.59,1.09A10.8,10.8,0,0,1,98.22,48.59Z"/><rect x="51.37" y="60.26" width="95.7" height="35" fill="#6accef"/><rect x="51.37" y="97.34" width="46.75" height="17.5" fill="#6accef"/><rect x="100.32" y="97.34" width="46.75" height="17.5" fill="#6accef"/><rect x="51.37" y="116.92" width="46.75" height="17.5" fill="#6accef"/><rect x="100.32" y="116.92" width="46.75" height="17.5" fill="#6accef"/><rect x="51.37" y="136.58" width="46.75" height="2.93" fill="#6accef"/><rect x="100.32" y="136.58" width="46.75" height="2.97" fill="#6accef"/><circle cx="15.37" cy="8.87" r="3.83" fill="#c93232"/><circle cx="26.14" cy="8.87" r="3.83" fill="#ffcf36"/><circle cx="36.91" cy="8.87" r="3.83" fill="#6edd62"/><line x1="135.25" y1="157.25" x2="116.12" y2="127.06" fill="none" stroke="#fff" stroke-miterlimit="10"/><polygon points="121.11 125.63 112.28 121 112.69 130.96 121.11 125.63" fill="#fff"/></svg>